<?xml version="1.0" encoding="utf-8"?>
<!-- Generator: Adobe Illustrator 25.0.0, SVG Export Plug-In . SVG Version: 6.00 Build 0)  -->
<svg version="1.1" id="Capa_1" xmlns="http://www.w3.org/2000/svg" xmlns:xlink="http://www.w3.org/1999/xlink" x="0px" y="0px"
	 viewBox="0 0 352.1 115" style="enable-background:new 0 0 352.1 115;" xml:space="preserve">
<style type="text/css">
	.st0{fill:#07579D;}
	.st1{fill:#8D8D8D;}
	.st2{fill:#1D1E1C;}
</style>
<g>
	<g>
		<path class="st0" d="M251.8,41.6c43.9-29.7-118.2-30.5-220.2-11.9c31.3-9.1,121.9-23,184.1-22.1c31.3,0.5,55.4,4.7,61.2,15.1
			C280.9,34.6,251.8,41.6,251.8,41.6z"/>
		<g>
			<g>
				<path class="st1" d="M70.6,51.4H53.7v-3.7c0-1.7-0.2-2.9-0.6-3.3c-0.4-0.5-1.1-0.7-2.2-0.7c-1.1,0-1.9,0.3-2.5,1
					c-0.6,0.6-0.8,1.6-0.8,2.9c0,1.7,0.3,2.9,0.9,3.8c0.6,0.9,2.3,1.9,5.1,3.1c8.1,3.5,13.2,6.3,15.3,8.5c2.1,2.2,3.2,5.8,3.2,10.8
					c0,3.6-0.6,6.3-1.8,8c-1.2,1.7-3.4,3.1-6.8,4.3c-3.3,1.1-7.2,1.7-11.7,1.7c-4.9,0-9-0.7-12.5-2c-3.4-1.3-5.7-3-6.7-5.1
					c-1.1-2.1-1.6-5-1.6-8.8v-3.3H48v6.2c0,1.9,0.2,3.1,0.7,3.6c0.5,0.5,1.3,0.8,2.5,0.8c1.2,0,2.1-0.3,2.7-1
					c0.6-0.7,0.9-1.7,0.9-3.1c0-3-0.6-4.9-1.7-5.8c-1.2-0.9-4-2.4-8.5-4.6c-4.5-2.2-7.5-3.7-9-4.7c-1.5-1-2.7-2.3-3.6-4.1
					c-1-1.7-1.5-3.9-1.5-6.6c0-3.9,0.7-6.7,2-8.5c1.4-1.8,3.6-3.2,6.6-4.2c3.1-1,6.7-1.5,11.1-1.5c4.7,0,8.7,0.5,12.1,1.6
					c3.3,1.1,5.5,2.5,6.6,4.2c1.1,1.7,1.6,4.5,1.6,8.5V51.4z"/>
				<path class="st1" d="M116.8,66.7H94.2v9c0,1.9,0.2,3.1,0.6,3.6c0.4,0.5,1.1,0.8,2.2,0.8c1.3,0,2.2-0.4,2.7-1.1
					c0.4-0.7,0.7-2.1,0.7-4.2v-5.5h16.5v3.1c0,2.6-0.2,4.5-0.7,5.9c-0.5,1.4-1.5,2.8-3.1,4.4c-1.6,1.6-3.7,2.7-6.2,3.5
					c-2.5,0.8-5.7,1.2-9.5,1.2c-3.7,0-6.9-0.4-9.7-1.2c-2.8-0.8-5-1.8-6.6-3.2c-1.6-1.3-2.7-2.8-3.3-4.4c-0.6-1.6-0.9-4-0.9-7V59.5
					c0-3.6,0.7-6.5,2-8.6c1.4-2.1,3.6-3.7,6.6-4.8c3.1-1.1,6.6-1.7,10.6-1.7c4.9,0,8.9,0.7,12.1,2c3.2,1.3,5.4,3.1,6.7,5.3
					c1.3,2.2,1.9,5.3,1.9,9.4V66.7z M99.3,59.9v-3c0-2.2-0.2-3.5-0.5-4.2c-0.3-0.6-1-0.9-2-0.9c-1.2,0-1.9,0.3-2.2,0.8
					c-0.3,0.5-0.4,2-0.4,4.3v3H99.3z"/>
				<path class="st1" d="M158.6,45.2l-8.2,41.4h-22.8l-8.8-41.4h15.6l4.9,30.2c0.4-2.2,1-7.6,2-16.2c0.5-4.8,1-9.5,1.7-14H158.6z"/>
				<path class="st1" d="M200.6,66.7H178v9c0,1.9,0.2,3.1,0.6,3.6c0.4,0.5,1.1,0.8,2.2,0.8c1.3,0,2.2-0.4,2.7-1.1
					c0.4-0.7,0.7-2.1,0.7-4.2v-5.5h16.5v3.1c0,2.6-0.2,4.5-0.7,5.9c-0.4,1.4-1.5,2.8-3.1,4.4c-1.6,1.6-3.7,2.7-6.2,3.5
					c-2.5,0.8-5.7,1.2-9.5,1.2c-3.7,0-6.9-0.4-9.8-1.2c-2.8-0.8-5-1.8-6.6-3.2c-1.6-1.3-2.7-2.8-3.3-4.4c-0.6-1.6-0.9-4-0.9-7V59.5
					c0-3.6,0.7-6.5,2-8.6c1.4-2.1,3.6-3.7,6.7-4.8c3.1-1.1,6.6-1.7,10.6-1.7c4.9,0,8.9,0.7,12.1,2c3.2,1.3,5.4,3.1,6.7,5.3
					c1.3,2.2,1.9,5.3,1.9,9.4V66.7z M183.1,59.9v-3c0-2.2-0.2-3.5-0.5-4.2c-0.3-0.6-1-0.9-1.9-0.9c-1.2,0-2,0.3-2.2,0.8
					c-0.3,0.5-0.4,2-0.4,4.3v3H183.1z"/>
				<path class="st1" d="M224,45.2l-0.3,3.8c1.3-1.5,2.8-2.7,4.6-3.4c1.8-0.8,3.9-1.1,6.3-1.1c3,0,5.4,0.5,7.3,1.5
					c1.9,1,3.1,2.3,3.7,3.9c0.5,1.5,0.8,4.1,0.8,7.7v29h-17.4V58c0-2.8-0.1-4.6-0.4-5.2c-0.3-0.6-1-0.9-2.2-0.9
					c-1.2,0-2,0.4-2.3,1.1c-0.3,0.7-0.5,2.6-0.5,5.8v28h-17.4V45.2H224z"/>
			</g>
		</g>
		<g>
			<path class="st2" d="M259.7,71.2v4.3h-7.8v-4.3H259.7z"/>
		</g>
		<g>
			<g>
				<path class="st2" d="M265.1,63.4h13.7v4.6h-5.5v4.3h5.2v4.3h-5.2v5h6v4.6h-14.3V63.4z"/>
				<path class="st2" d="M281.8,63.4h5.8c3.9,0,6.5,0.1,7.9,0.3c1.4,0.2,2.5,0.8,3.4,1.7c0.9,0.9,1.3,2.3,1.3,4.2
					c0,1.8-0.3,3-0.9,3.6c-0.6,0.6-1.8,1-3.6,1.1c1.7,0.3,2.7,0.7,3.3,1.2c0.6,0.5,0.9,0.9,1,1.4c0.1,0.4,0.2,1.5,0.2,3.4v6h-7.7
					v-7.6c0-1.2-0.1-2-0.4-2.3c-0.3-0.3-1-0.4-2.1-0.4v10.3h-8.3V63.4z M290.1,67.3v5.1c0.9,0,1.6-0.1,2-0.3
					c0.4-0.2,0.5-0.8,0.5-1.8V69c0-0.7-0.2-1.2-0.5-1.4C291.7,67.4,291,67.3,290.1,67.3z"/>
				<path class="st2" d="M311.7,63.4c2.2,0,4,0.1,5.2,0.4c1.2,0.3,2.1,0.6,2.7,1.1c0.6,0.5,1,1.1,1.2,1.7c0.2,0.7,0.3,1.7,0.3,3.2v2
					c0,1.5-0.2,2.5-0.6,3.2c-0.4,0.7-1.2,1.2-2.3,1.5c-1.1,0.4-2.6,0.5-4.4,0.5h-2.2v9.2h-8.3V63.4H311.7z M311.7,67.3v5.8
					c0.2,0,0.4,0,0.6,0c0.7,0,1.3-0.1,1.6-0.4c0.3-0.3,0.4-0.8,0.4-1.7v-1.9c0-0.8-0.2-1.3-0.5-1.5
					C313.4,67.4,312.7,67.3,311.7,67.3z"/>
			</g>
		</g>
	</g>
	<g>
		<g>
			<path class="st2" d="M234.2,96.2c0.2,0,0.4,0,0.7-0.1c0.3,0,0.5,0,0.8,0c0.3,0,0.6,0,0.8,0c0.3,0,0.5,0,0.8,0
				c0.9,0,1.7,0.1,2.4,0.3c0.7,0.2,1.2,0.5,1.7,0.9c0.4,0.4,0.8,0.9,1,1.4c0.2,0.5,0.3,1.1,0.3,1.8c0,0.6-0.1,1.1-0.3,1.7
				c-0.2,0.5-0.5,1-1,1.4c-0.5,0.4-1,0.8-1.7,1c-0.7,0.3-1.5,0.4-2.5,0.4c-0.2,0-0.4,0-0.7,0c-0.3,0-0.6,0-0.9,0c-0.3,0-0.6,0-0.8,0
				c-0.3,0-0.4,0-0.5,0V96.2z M237.4,97.2c-0.1,0-0.3,0-0.4,0c-0.2,0-0.3,0-0.5,0c-0.2,0-0.3,0-0.4,0c-0.1,0-0.2,0-0.3,0v6.6
				c0.1,0,0.1,0,0.3,0s0.3,0,0.5,0c0.2,0,0.3,0,0.4,0c0.1,0,0.2,0,0.3,0c0.7,0,1.4-0.1,1.9-0.3c0.5-0.2,0.9-0.5,1.2-0.8
				c0.3-0.3,0.5-0.7,0.6-1.1c0.1-0.4,0.2-0.8,0.2-1.3c0-0.4-0.1-0.8-0.2-1.1c-0.1-0.4-0.3-0.7-0.6-1.1c-0.3-0.3-0.7-0.6-1.1-0.8
				C238.7,97.3,238.1,97.2,237.4,97.2z"/>
		</g>
		<g>
			<path class="st2" d="M245,96.9c0-0.2,0.1-0.4,0.3-0.5c0.2-0.2,0.4-0.2,0.7-0.2c0.3,0,0.5,0.1,0.7,0.2s0.3,0.3,0.3,0.5
				c0,0.2-0.1,0.4-0.3,0.5c-0.2,0.1-0.4,0.2-0.7,0.2c-0.3,0-0.5-0.1-0.7-0.2C245.1,97.2,245,97.1,245,96.9z M245.3,98.4h1.4v6.5
				h-1.4V98.4z"/>
		</g>
		<g>
			<path class="st2" d="M256.3,105c0,0.9-0.3,1.5-0.9,1.9c-0.6,0.4-1.5,0.6-2.7,0.6c-0.7,0-1.2,0-1.6-0.1c-0.4-0.1-0.8-0.2-1.1-0.3
				l0.3-1c0.1,0,0.3,0.1,0.4,0.2c0.2,0.1,0.3,0.1,0.5,0.1c0.2,0,0.4,0.1,0.6,0.1c0.2,0,0.4,0,0.6,0c0.5,0,0.9,0,1.2-0.1
				c0.3-0.1,0.6-0.2,0.8-0.3c0.2-0.2,0.3-0.3,0.4-0.6c0.1-0.2,0.1-0.5,0.1-0.8v-0.5h-0.2c-0.2,0.2-0.4,0.4-0.8,0.5
				c-0.4,0.1-0.9,0.2-1.4,0.2c-1.1,0-2-0.3-2.5-0.8c-0.5-0.5-0.8-1.3-0.8-2.5c0-1.1,0.3-2,1-2.6c0.7-0.6,1.7-0.9,3.1-0.9
				c0.7,0,1.2,0,1.7,0.1c0.5,0.1,0.9,0.2,1.3,0.3V105z M252.8,104c0.6,0,1.1-0.1,1.4-0.4c0.3-0.3,0.6-0.6,0.7-1v-3.2
				c-0.2-0.1-0.5-0.1-0.8-0.1c-0.3,0-0.6,0-1,0c-0.8,0-1.4,0.2-1.8,0.6c-0.4,0.4-0.7,1-0.7,1.9c0,0.7,0.2,1.3,0.5,1.7
				C251.5,103.8,252,104,252.8,104z"/>
		</g>
		<g>
			<path class="st2" d="M259.1,96.9c0-0.2,0.1-0.4,0.3-0.5c0.2-0.2,0.4-0.2,0.7-0.2c0.3,0,0.5,0.1,0.7,0.2c0.2,0.2,0.3,0.3,0.3,0.5
				c0,0.2-0.1,0.4-0.3,0.5c-0.2,0.1-0.4,0.2-0.7,0.2c-0.3,0-0.5-0.1-0.7-0.2C259.2,97.2,259.1,97.1,259.1,96.9z M259.3,98.4h1.4v6.5
				h-1.4V98.4z"/>
		</g>
		<g>
			<path class="st2" d="M262.7,98.4h1.3v-1.3l1.4-0.3v1.6h2.4v1h-2.4v3.3c0,0.5,0.1,0.9,0.2,1.1c0.2,0.2,0.4,0.3,0.8,0.3
				c0.2,0,0.5,0,0.7-0.1c0.2,0,0.4-0.1,0.7-0.2l0.3,0.8c-0.3,0.1-0.7,0.2-1,0.3c-0.4,0.1-0.8,0.1-1.2,0.1c-0.7,0-1.2-0.2-1.5-0.5
				c-0.3-0.3-0.4-0.8-0.4-1.5v-3.7h-1.3V98.4z"/>
		</g>
		<g>
			<path class="st2" d="M269.6,98.8c0.9-0.4,2-0.5,3.3-0.5c0.6,0,1.1,0.1,1.4,0.2c0.4,0.1,0.6,0.3,0.8,0.5c0.2,0.2,0.3,0.4,0.4,0.7
				c0.1,0.2,0.1,0.5,0.1,0.7c0,0.5,0,0.9-0.1,1.4c0,0.5-0.1,1-0.1,1.5c0,0.3,0,0.6,0.1,0.9c0,0.3,0.1,0.6,0.2,0.8h-1l-0.4-1h-0.1
				c-0.1,0.1-0.2,0.3-0.4,0.4c-0.2,0.1-0.3,0.2-0.6,0.3c-0.2,0.1-0.5,0.2-0.8,0.2c-0.3,0.1-0.6,0.1-1,0.1c-0.4,0-0.7,0-1-0.1
				c-0.3-0.1-0.6-0.2-0.8-0.4c-0.2-0.2-0.4-0.4-0.5-0.6c-0.1-0.2-0.2-0.5-0.2-0.8c0-0.4,0.1-0.7,0.3-1c0.2-0.3,0.4-0.5,0.8-0.7
				c0.3-0.2,0.7-0.3,1.1-0.4c0.4-0.1,0.8-0.1,1.2-0.1c0.3,0,0.6,0,0.8,0c0.2,0,0.4,0,0.5,0c0.1,0,0.3,0,0.4,0c0.1,0,0.2,0,0.3,0
				c0-0.1,0-0.2,0-0.3c0-0.1,0-0.2,0-0.3c0-0.2,0-0.4-0.1-0.6c-0.1-0.2-0.2-0.3-0.3-0.4c-0.1-0.1-0.3-0.2-0.5-0.2
				c-0.2,0-0.5-0.1-0.8-0.1c-0.2,0-0.4,0-0.6,0c-0.2,0-0.5,0.1-0.7,0.1c-0.2,0-0.5,0.1-0.7,0.2c-0.2,0.1-0.4,0.1-0.6,0.2L269.6,98.8
				z M274.3,102c-0.1,0-0.2,0-0.3,0c-0.1,0-0.2,0-0.3,0c-0.1,0-0.3,0-0.5,0c-0.2,0-0.4,0-0.7,0c-0.6,0-1.1,0.1-1.5,0.3
				c-0.4,0.2-0.5,0.5-0.5,0.9c0,0.3,0.1,0.6,0.4,0.7c0.3,0.2,0.6,0.3,1.1,0.3c0.3,0,0.6,0,0.9-0.1c0.3-0.1,0.5-0.2,0.7-0.3
				c0.2-0.1,0.3-0.2,0.4-0.3c0.1-0.1,0.2-0.3,0.3-0.4V102z"/>
		</g>
		<g>
			<path class="st2" d="M280,103.2c0,0.3,0.1,0.6,0.2,0.7c0.2,0.1,0.4,0.2,0.6,0.2c0.2,0,0.3,0,0.5,0c0.2,0,0.3,0,0.5-0.1l0.2,0.8
				c-0.1,0-0.2,0.1-0.4,0.1c-0.1,0-0.3,0.1-0.4,0.1c-0.1,0-0.3,0-0.4,0.1c-0.1,0-0.3,0-0.4,0c-0.5,0-1-0.1-1.3-0.3
				c-0.3-0.2-0.5-0.6-0.5-1.1v-7.4h1.4V103.2z"/>
		</g>
		<g>
			<path class="st2" d="M289.9,101.9l0.2,1.4h0l0.3-1.5l2.3-5.6h0.7l2.3,5.6l0.3,1.4h0l0.3-1.5l1.8-5.6h1.5l-3.2,8.8h-0.9l-2.3-5.6
				l-0.3-1.3H293l-0.3,1.3l-2.3,5.6h-0.9l-3.2-8.8h1.6L289.9,101.9z"/>
		</g>
		<g>
			<path class="st2" d="M300.4,98.8c0.9-0.4,2-0.5,3.3-0.5c0.6,0,1.1,0.1,1.4,0.2c0.4,0.1,0.6,0.3,0.8,0.5c0.2,0.2,0.3,0.4,0.4,0.7
				c0.1,0.2,0.1,0.5,0.1,0.7c0,0.5,0,0.9-0.1,1.4c0,0.5-0.1,1-0.1,1.5c0,0.3,0,0.6,0.1,0.9c0,0.3,0.1,0.6,0.2,0.8h-1l-0.4-1h-0.1
				c-0.1,0.1-0.2,0.3-0.4,0.4c-0.2,0.1-0.3,0.2-0.6,0.3c-0.2,0.1-0.5,0.2-0.8,0.2c-0.3,0.1-0.6,0.1-1,0.1c-0.4,0-0.7,0-1-0.1
				c-0.3-0.1-0.6-0.2-0.8-0.4c-0.2-0.2-0.4-0.4-0.5-0.6c-0.1-0.2-0.2-0.5-0.2-0.8c0-0.4,0.1-0.7,0.3-1c0.2-0.3,0.4-0.5,0.8-0.7
				c0.3-0.2,0.7-0.3,1.1-0.4c0.4-0.1,0.8-0.1,1.2-0.1c0.3,0,0.6,0,0.8,0c0.2,0,0.4,0,0.5,0c0.1,0,0.3,0,0.4,0c0.1,0,0.2,0,0.3,0
				c0-0.1,0-0.2,0-0.3c0-0.1,0-0.2,0-0.3c0-0.2,0-0.4-0.1-0.6c-0.1-0.2-0.2-0.3-0.3-0.4c-0.1-0.1-0.3-0.2-0.5-0.2
				c-0.2,0-0.5-0.1-0.8-0.1c-0.2,0-0.4,0-0.6,0c-0.2,0-0.5,0.1-0.7,0.1c-0.2,0-0.5,0.1-0.7,0.2c-0.2,0.1-0.4,0.1-0.6,0.2L300.4,98.8
				z M305.1,102c-0.1,0-0.2,0-0.3,0c-0.1,0-0.2,0-0.3,0c-0.1,0-0.3,0-0.5,0c-0.2,0-0.4,0-0.7,0c-0.6,0-1.1,0.1-1.5,0.3
				c-0.4,0.2-0.5,0.5-0.5,0.9c0,0.3,0.1,0.6,0.4,0.7c0.3,0.2,0.6,0.3,1.1,0.3c0.3,0,0.6,0,0.9-0.1c0.3-0.1,0.5-0.2,0.7-0.3
				c0.2-0.1,0.3-0.2,0.4-0.3c0.1-0.1,0.2-0.3,0.3-0.4V102z"/>
		</g>
		<g>
			<path class="st2" d="M313.3,99.5c-0.2,0-0.3-0.1-0.5-0.1c-0.2,0-0.3,0-0.4,0c-0.5,0-0.9,0.1-1.2,0.3c-0.3,0.2-0.5,0.5-0.5,0.8
				v4.4h-1.4v-6.5h1l0.3,0.9h0.1c0.2-0.3,0.5-0.6,0.8-0.7c0.3-0.2,0.7-0.3,1.1-0.3c0.1,0,0.3,0,0.5,0c0.2,0,0.4,0.1,0.6,0.1
				L313.3,99.5z"/>
		</g>
		<g>
			<path class="st2" d="M321.3,104.4c-0.3,0.2-0.8,0.4-1.3,0.5c-0.5,0.1-1.1,0.2-1.7,0.2c-0.7,0-1.2-0.1-1.7-0.2
				c-0.5-0.2-0.9-0.4-1.2-0.7c-0.3-0.3-0.5-0.7-0.7-1.1c-0.1-0.4-0.2-0.9-0.2-1.4c0-1.1,0.3-2,1-2.6c0.7-0.6,1.6-0.9,2.8-0.9
				c0.4,0,0.8,0,1.2,0.1c0.4,0.1,0.7,0.2,1,0.4c0.3,0.2,0.6,0.5,0.8,0.8c0.2,0.3,0.3,0.8,0.3,1.3c0,0.1,0,0.3,0,0.5
				c0,0.2,0,0.3-0.1,0.5h-5.6c0,0.8,0.2,1.3,0.7,1.7c0.4,0.4,1.1,0.6,2.1,0.6c0.4,0,0.8-0.1,1.2-0.2c0.4-0.1,0.7-0.3,0.9-0.4
				L321.3,104.4z M320.2,101c0-0.7-0.1-1.1-0.5-1.4c-0.3-0.3-0.8-0.4-1.4-0.4c-0.7,0-1.2,0.1-1.7,0.4c-0.4,0.3-0.6,0.7-0.7,1.4
				H320.2z"/>
		</g>
	</g>
	<g>
		<g>
			<path class="st2" d="M224.2,105.1c-3.2,0-5.8-2.2-5.8-4.9c0-2.7,2.6-4.9,5.8-4.9c3.2,0,5.8,2.2,5.8,4.9
				C230,102.9,227.4,105.1,224.2,105.1z M224.2,96.3c-2.7,0-4.8,1.8-4.8,3.9c0,2.2,2.2,3.9,4.8,3.9c2.7,0,4.8-1.8,4.8-3.9
				C229.1,98.1,226.9,96.3,224.2,96.3z"/>
		</g>
		<g>
			<g>
				<path class="st2" d="M226.1,102.2c-0.3,0.1-0.9,0.3-1.7,0.3c-1.8,0-3-1-3-2.5c0-1.5,1.3-2.6,3.2-2.6c0.7,0,1.2,0.1,1.5,0.3
					l-0.2,0.7c-0.3-0.1-0.7-0.2-1.3-0.2c-1.4,0-2.1,0.8-2.1,1.9c0,1.2,0.9,1.9,2.1,1.9c0.6,0,1-0.1,1.3-0.2L226.1,102.2z"/>
			</g>
		</g>
	</g>
	<g>
		<g>
			<path class="st2" d="M30.6,96.1h1.4v3h0.1c0.2-0.3,0.6-0.6,1-0.7c0.4-0.2,0.9-0.2,1.4-0.2c1.1,0,1.9,0.3,2.5,0.8
				c0.6,0.5,0.8,1.4,0.8,2.5c0,1.1-0.4,2-1.1,2.6c-0.7,0.6-1.8,0.9-3.1,0.9c-0.7,0-1.2,0-1.8-0.1c-0.5-0.1-0.9-0.2-1.2-0.3V96.1z
				 M34.2,99.1c-0.3,0-0.6,0-0.8,0.1c-0.2,0.1-0.5,0.2-0.6,0.3c-0.2,0.1-0.4,0.3-0.5,0.5c-0.1,0.2-0.2,0.4-0.3,0.6v3.1
				c0.5,0.2,1.1,0.2,1.8,0.2c0.8,0,1.4-0.2,1.9-0.6c0.5-0.4,0.7-1,0.7-1.9c0-0.3,0-0.6-0.1-0.9c-0.1-0.3-0.2-0.5-0.4-0.7
				c-0.2-0.2-0.4-0.4-0.6-0.5C34.9,99.2,34.6,99.1,34.2,99.1z"/>
		</g>
		<g>
			<path class="st2" d="M42.2,102.4l0.5,1.3h0.2l0.4-1.3l1.6-4.1h1.4l-2.6,5.9c-0.2,0.4-0.4,0.8-0.6,1.2c-0.2,0.4-0.4,0.7-0.6,1
				c-0.2,0.3-0.5,0.5-0.8,0.7c-0.3,0.2-0.6,0.3-1,0.3c-0.4,0-0.7,0-1-0.1l0.2-1c0.1,0,0.3,0.1,0.4,0.1c0.2,0,0.4,0,0.5-0.1
				c0.2,0,0.3-0.1,0.5-0.2c0.1-0.1,0.3-0.3,0.4-0.5c0.1-0.2,0.2-0.4,0.3-0.8l-3.5-6.5h1.6L42.2,102.4z"/>
		</g>
		<g>
			<path class="st2" d="M51.1,100.5c0-0.7,0.1-1.3,0.3-1.9c0.2-0.6,0.5-1,0.9-1.4c0.4-0.4,0.9-0.7,1.5-0.9c0.6-0.2,1.2-0.3,2-0.3
				c0.8,0,1.5,0.1,2.1,0.3c0.6,0.2,1.1,0.5,1.5,0.9c0.4,0.4,0.7,0.9,0.9,1.4c0.2,0.6,0.3,1.2,0.3,1.8c0,0.7-0.1,1.3-0.3,1.9
				c-0.2,0.6-0.5,1-0.9,1.4c-0.4,0.4-0.9,0.7-1.5,0.9c-0.6,0.2-1.2,0.3-2,0.3c-0.8,0-1.5-0.1-2.1-0.3c-0.6-0.2-1.1-0.5-1.5-0.9
				c-0.4-0.4-0.7-0.9-0.9-1.4C51.2,101.8,51.1,101.1,51.1,100.5z M52.6,100.5c0,0.5,0.1,0.9,0.2,1.3c0.1,0.4,0.3,0.8,0.6,1.1
				c0.3,0.3,0.6,0.6,1,0.7c0.4,0.2,0.9,0.3,1.4,0.3c1,0,1.7-0.3,2.3-0.8c0.6-0.5,0.8-1.4,0.8-2.6c0-0.5-0.1-0.9-0.2-1.3
				c-0.1-0.4-0.3-0.8-0.6-1.1c-0.3-0.3-0.6-0.6-1-0.7c-0.4-0.2-0.9-0.3-1.4-0.3c-1,0-1.7,0.3-2.3,0.8
				C52.9,98.5,52.6,99.3,52.6,100.5z"/>
		</g>
		<g>
			<path class="st2" d="M62.7,98.3h0.9l0.3,0.8H64c0.3-0.3,0.6-0.6,1-0.8c0.4-0.2,0.9-0.3,1.4-0.3c1.1,0,2,0.3,2.5,0.8
				c0.6,0.5,0.8,1.4,0.8,2.5c0,0.5-0.1,1-0.3,1.5c-0.2,0.4-0.4,0.8-0.8,1.1c-0.3,0.3-0.8,0.5-1.3,0.7c-0.5,0.2-1,0.3-1.6,0.3
				c-0.2,0-0.4,0-0.5,0c-0.2,0-0.3,0-0.5-0.1c-0.1,0-0.3-0.1-0.4-0.1c-0.1,0-0.3-0.1-0.4-0.1v2.6h-1.4V98.3z M66.2,99.1
				c-0.6,0-1.1,0.1-1.4,0.4c-0.3,0.3-0.6,0.6-0.7,1.1v3c0.2,0.1,0.5,0.2,0.7,0.3c0.3,0.1,0.6,0.1,1,0.1c0.8,0,1.4-0.2,1.9-0.7
				c0.5-0.4,0.7-1.1,0.7-2c0-0.7-0.2-1.3-0.5-1.7C67.5,99.3,67,99.1,66.2,99.1z"/>
		</g>
		<g>
			<path class="st2" d="M77.6,104.8v-3.6c0-0.4,0-0.7-0.1-0.9c-0.1-0.3-0.2-0.5-0.3-0.7c-0.1-0.2-0.3-0.3-0.6-0.4
				c-0.2-0.1-0.6-0.1-0.9-0.1c-0.3,0-0.5,0-0.8,0.1c-0.3,0.1-0.5,0.2-0.7,0.3c-0.2,0.1-0.4,0.3-0.5,0.5c-0.1,0.2-0.3,0.4-0.3,0.6
				v4.2h-1.4v-8.7h1.4v3h0.2c0.3-0.3,0.7-0.5,1.1-0.7c0.4-0.2,0.9-0.3,1.6-0.3c0.5,0,0.9,0,1.2,0.1c0.3,0.1,0.6,0.2,0.9,0.5
				c0.2,0.2,0.4,0.5,0.5,0.9C79,100,79,100.4,79,101v3.8H77.6z"/>
		</g>
		<g>
			<path class="st2" d="M88,104.3c-0.3,0.2-0.8,0.4-1.3,0.5c-0.5,0.1-1.1,0.2-1.7,0.2c-0.7,0-1.2-0.1-1.7-0.2
				c-0.5-0.2-0.9-0.4-1.2-0.7c-0.3-0.3-0.5-0.7-0.7-1.1c-0.2-0.4-0.2-0.9-0.2-1.4c0-1.1,0.3-2,1-2.6c0.7-0.6,1.6-0.9,2.8-0.9
				c0.4,0,0.8,0,1.2,0.1c0.4,0.1,0.7,0.2,1,0.4c0.3,0.2,0.6,0.5,0.8,0.8c0.2,0.3,0.3,0.8,0.3,1.3c0,0.1,0,0.3,0,0.5
				c0,0.2,0,0.3-0.1,0.5h-5.6c0,0.8,0.2,1.3,0.7,1.7c0.4,0.4,1.1,0.6,2.1,0.6c0.4,0,0.8-0.1,1.2-0.2c0.4-0.1,0.7-0.3,0.9-0.4
				L88,104.3z M87,100.9c0-0.7-0.1-1.1-0.5-1.4c-0.3-0.3-0.8-0.4-1.4-0.4c-0.7,0-1.2,0.1-1.7,0.4c-0.4,0.3-0.6,0.7-0.7,1.4H87z"/>
		</g>
		<g>
			<path class="st2" d="M92.1,103.1c0,0.3,0.1,0.6,0.2,0.7c0.2,0.1,0.4,0.2,0.6,0.2c0.2,0,0.3,0,0.5,0c0.1,0,0.3,0,0.5-0.1l0.2,0.8
				c-0.1,0-0.2,0.1-0.4,0.1c-0.1,0-0.3,0.1-0.4,0.1c-0.1,0-0.3,0-0.4,0.1c-0.1,0-0.3,0-0.4,0c-0.5,0-1-0.1-1.3-0.3
				c-0.3-0.2-0.5-0.6-0.5-1.1v-7.4h1.4V103.1z"/>
		</g>
		<g>
			<path class="st2" d="M95.7,96.8c0-0.2,0.1-0.4,0.3-0.5c0.2-0.2,0.4-0.2,0.7-0.2c0.3,0,0.5,0.1,0.7,0.2c0.2,0.2,0.3,0.3,0.3,0.5
				c0,0.2-0.1,0.4-0.3,0.5c-0.2,0.1-0.4,0.2-0.7,0.2c-0.3,0-0.5-0.1-0.7-0.2C95.8,97.1,95.7,96.9,95.7,96.8z M96,98.3h1.4v6.5H96
				V98.3z"/>
		</g>
		<g>
			<path class="st2" d="M100.2,98.7c0.9-0.4,2-0.5,3.3-0.5c0.6,0,1.1,0.1,1.4,0.2c0.4,0.1,0.6,0.3,0.8,0.5c0.2,0.2,0.3,0.4,0.4,0.7
				c0.1,0.2,0.1,0.5,0.1,0.7c0,0.5,0,0.9-0.1,1.4c0,0.5-0.1,1-0.1,1.5c0,0.3,0,0.6,0.1,0.9c0,0.3,0.1,0.6,0.2,0.8h-1l-0.4-1h-0.1
				c-0.1,0.1-0.2,0.3-0.4,0.4c-0.2,0.1-0.3,0.2-0.6,0.3c-0.2,0.1-0.5,0.2-0.8,0.2c-0.3,0.1-0.6,0.1-1,0.1c-0.4,0-0.7,0-1-0.1
				c-0.3-0.1-0.6-0.2-0.8-0.4c-0.2-0.2-0.4-0.4-0.5-0.6c-0.1-0.2-0.2-0.5-0.2-0.8c0-0.4,0.1-0.7,0.3-1c0.2-0.3,0.4-0.5,0.8-0.7
				c0.3-0.2,0.7-0.3,1.1-0.4c0.4-0.1,0.8-0.1,1.2-0.1c0.3,0,0.6,0,0.8,0c0.2,0,0.4,0,0.5,0c0.1,0,0.3,0,0.4,0c0.1,0,0.2,0,0.3,0
				c0-0.1,0-0.2,0-0.3c0-0.1,0-0.2,0-0.3c0-0.2,0-0.4-0.1-0.6c-0.1-0.2-0.2-0.3-0.3-0.4c-0.1-0.1-0.3-0.2-0.5-0.2
				c-0.2,0-0.5-0.1-0.8-0.1c-0.2,0-0.4,0-0.6,0c-0.2,0-0.5,0.1-0.7,0.1c-0.2,0-0.5,0.1-0.7,0.2c-0.2,0.1-0.4,0.1-0.6,0.2L100.2,98.7
				z M104.9,101.9c-0.1,0-0.2,0-0.3,0c-0.1,0-0.2,0-0.3,0c-0.1,0-0.3,0-0.5,0c-0.2,0-0.4,0-0.7,0c-0.6,0-1.1,0.1-1.5,0.3
				c-0.4,0.2-0.5,0.5-0.5,0.9c0,0.3,0.1,0.6,0.4,0.7c0.3,0.2,0.6,0.3,1.1,0.3c0.3,0,0.6,0,0.9-0.1c0.3-0.1,0.5-0.2,0.7-0.3
				c0.2-0.1,0.3-0.2,0.4-0.3c0.1-0.1,0.2-0.3,0.3-0.4V101.9z"/>
		</g>
	</g>
</g>
</svg>
